<?xml version="1.0" ?><svg id="Layer_1" style="enable-background:new 0 0 512 512;" version="1.1" viewBox="0 0 512 512" height="30px" xml:space="preserve" xmlns="http://www.w3.org/2000/svg" xmlns:xlink="http://www.w3.org/1999/xlink"><style type="text/css">
	.st0{fill:#42ABF0;}
</style><path class="st0" d="M453.9,311.4c3-13.9,4.6-28.2,4.6-43c0-110.6-89.7-200.3-200.3-200.3c-11.7,0-23.1,1-34.3,2.9  c-17.9-11.3-39.1-17.8-61.8-17.8C98,53.2,46,105.2,46,169.3c0,21.4,5.8,41.5,16,58.8c-2.7,13-4.1,26.5-4.1,40.3  c0,110.7,89.7,200.3,200.3,200.3c12.5,0,24.8-1.2,36.7-3.3c16.4,8.8,35.1,13.8,54.9,13.8c64.2,0,116.2-52,116.2-116.2  C466,344.4,461.6,326.9,453.9,311.4z M361,364.1c-9.3,13.1-23,23.5-40.7,30.9c-17.6,7.3-38.6,11-62.6,11c-28.8,0-52.9-5.1-71.7-15.1  c-13.5-7.3-24.6-17.1-33-29.3c-8.5-12.3-12.8-24.4-12.8-36.2c0-7.3,2.8-13.7,8.3-18.9c5.5-5.2,12.5-7.8,20.9-7.8  c6.9,0,12.8,2.1,17.7,6.1c4.6,3.9,8.6,9.7,11.7,17.2c3.6,8.1,7.4,15,11.5,20.4c3.9,5.2,9.6,9.6,16.8,13c7.3,3.4,17.1,5.2,29.1,5.2  c16.6,0,30.2-3.5,40.4-10.5c10-6.8,14.8-15,14.8-25c0-7.9-2.5-14.1-7.7-19c-5.5-5.1-12.7-9-21.4-11.8c-9.1-2.8-21.5-5.9-36.7-9.1  c-20.8-4.4-38.5-9.7-52.5-15.7c-14.4-6.1-26-14.6-34.4-25.2c-8.6-10.8-13-24.3-13-40.2c0-15.1,4.6-28.8,13.6-40.5  c9-11.7,22-20.8,38.9-27c16.6-6.2,36.4-9.3,58.8-9.3c17.9,0,33.6,2.1,46.7,6.1c13.2,4.1,24.3,9.7,33.1,16.5  c8.8,6.9,15.4,14.2,19.5,21.9c4.1,7.7,6.3,15.4,6.3,22.8c0,7.2-2.8,13.7-8.2,19.4c-5.5,5.7-12.4,8.6-20.6,8.6  c-7.4,0-13.2-1.8-17.3-5.4c-3.7-3.3-7.6-8.5-12-15.9c-5-9.5-11-17-18-22.2c-6.7-5.1-18-7.7-33.5-7.7c-14.3,0-26,2.9-34.7,8.6  c-8.4,5.5-12.4,11.7-12.4,19.2c0,4.6,1.3,8.4,4,11.7c2.8,3.5,6.9,6.5,11.9,9.1c5.3,2.6,10.7,4.7,16.1,6.2c5.6,1.6,14.9,3.8,27.7,6.8  c16.2,3.5,31.1,7.4,44.3,11.6c13.4,4.3,24.9,9.5,34.3,15.7c9.6,6.2,17.2,14.2,22.6,23.8c5.4,9.6,8.1,21.5,8.1,35.3  C375,335.9,370.3,351,361,364.1z"/></svg>